<?xml version="1.0" encoding="UTF-8"?>
<svg width="249px" height="134px" viewBox="0 0 249 134" version="1.1" xmlns="http://www.w3.org/2000/svg" xmlns:xlink="http://www.w3.org/1999/xlink">
    <!-- Generator: sketchtool 61 (101010) - https://sketch.com -->
    <title>35C983DA-F0A9-4FB8-84F8-EDC3B841D74E</title>
    <desc>Created with sketchtool.</desc>
    <defs>
        <polygon id="path-1" points="0 0.32805 248.696441 0.32805 248.696441 133.65 0 133.65"></polygon>
        <polygon id="path-3" points="0.00594 0.26792 248.68449 0.26792 248.68449 57.05 0.00594 57.05"></polygon>
        <polygon id="path-5" points="0.29006 0.32805 245.30831 0.32805 245.30831 97.756065 0.29006 97.756065"></polygon>
    </defs>
    <g id="Symbols" stroke="none" stroke-width="1" fill="none" fill-rule="evenodd">
        <g id="Assets-/-Cloud03">
            <g id="Cloud-01">
                <g id="Group-3" transform="translate(0.000000, 0.022220)">
                    <mask id="mask-2" fill="white">
                        <use xlink:href="#path-1"></use>
                    </mask>
                    <g id="Clip-2"></g>
                    <path d="M248.50206,100.893735 C249.05691,104.382135 248.47776,107.747685 246.06531,110.484135 C242.36226,114.682635 234.18261,114.613785 229.77351,111.834135 C228.84201,111.245535 223.85106,107.959635 221.70051,103.626135 C216.84186,110.484135 209.57886,116.124435 201.21831,116.977635 C192.12471,117.906435 185.33016,112.658985 181.68516,104.912685 C179.46981,109.352835 174.68271,112.468635 168.64956,112.708935 C163.94481,112.896585 157.78611,111.292785 155.11176,107.445285 C153.36216,114.598935 148.87206,120.812985 141.39441,122.765085 C134.33391,124.607835 126.28656,121.791735 121.91526,115.946235 C116.90136,125.829585 106.80471,133.551585 95.72256,133.650916 C84.64041,133.747335 73.61496,124.760385 73.34496,113.680935 C62.94861,116.946585 48.85731,113.655285 44.00136,107.406135 C36.59526,115.407585 21.00951,112.375485 17.14581,102.181635 C13.48596,102.536685 9.68841,102.874185 6.22161,101.647035 C2.75751,100.418535 -0.27594,97.150185 0.01971,93.484935 C0.29511,90.092385 3.21111,84.967785 6.83856,81.930285 C13.06206,76.720635 20.96496,75.026385 27.64881,79.628535 C26.67951,70.028685 32.95836,60.166935 42.06816,56.986335 C51.17796,53.804385 62.23041,57.611385 67.44816,65.730285 C71.04591,59.576985 79.05546,56.395035 85.89591,58.403835 C82.71666,53.362935 83.05146,46.348335 86.69781,41.632785 C90.34146,36.915885 97.04556,34.824735 102.72636,36.628335 C95.24061,30.924585 94.35501,18.431685 100.96056,11.727585 C107.56746,5.024835 120.07116,5.729535 125.88426,13.130235 C136.70046,0.633285 156.68451,-3.924315 170.63811,4.934385 C184.46211,13.710735 188.67411,34.591185 179.33076,48.038535 C184.98321,45.127935 192.29346,45.794835 197.32761,49.678785 C202.04586,53.319735 204.26931,59.370435 203.93856,65.221335 C206.38611,64.634085 209.61666,64.458585 212.33151,65.190285 C214.81956,65.859885 216.65826,68.091435 217.47096,70.537635 C218.28096,72.981135 218.21346,75.625785 217.97856,78.190785 C223.09236,77.290335 226.71981,78.724035 228.40731,80.496585 C231.04251,83.261385 231.58521,86.317785 231.87411,89.212185 C235.87416,87.963435 241.10541,89.988435 243.04941,91.341135 C245.85471,93.294585 247.90536,97.142085 248.50206,100.893735" id="Fill-1" fill="#E1FAFF" mask="url(#mask-2)"></path>
                </g>
                <g id="Group-6" transform="translate(0.000000, 76.622220)">
                    <mask id="mask-4" fill="white">
                        <use xlink:href="#path-3"></use>
                    </mask>
                    <g id="Clip-5"></g>
                    <path d="M221.51799,20.29247 C219.12984,24.31952 210.45609,29.37797 202.33584,26.00162 C194.85279,22.88987 191.66949,14.11622 195.61284,4.36787 C196.43634,3.06647 197.14104,1.70162 197.66754,0.26792 C194.35329,4.25717 190.38699,7.29197 186.06159,9.54647 C181.72944,11.78747 177.03414,13.19552 172.26189,13.80302 C167.48694,14.39162 162.60939,14.15267 157.91679,12.90392 C153.21474,11.66057 148.75839,9.40337 144.56799,6.34022 C147.50019,10.61837 151.88094,14.02172 156.87864,15.99812 C161.87364,18.00287 167.42619,18.64142 172.77759,17.96642 C173.84409,17.83817 174.89979,17.64107 175.94739,17.41022 C177.18939,20.93237 174.81339,25.17947 168.75459,26.84537 C161.93709,28.72052 151.37334,26.93042 147.15459,22.03667 C145.78569,26.23517 142.42959,33.00542 130.95459,33.68042 C122.63994,34.16912 112.95234,30.09482 114.39009,20.55167 C120.78369,18.94652 126.35514,14.58197 129.07674,8.92547 C126.16479,11.17862 123.27714,13.09292 120.18834,14.48342 C117.12114,15.88742 113.90004,16.79867 110.64924,17.10647 C107.40384,17.40617 104.12064,17.09837 101.08854,15.94682 C98.04564,14.81957 95.30514,12.75947 93.14379,9.76787 C96.69834,24.73667 84.15954,30.41342 76.56984,28.99592 C69.66594,27.70532 64.07154,23.34617 64.30239,17.16587 C64.40499,17.12267 64.51029,17.08757 64.61154,17.04437 C68.85054,15.27587 72.68589,12.48947 75.32919,8.86877 C71.50329,11.18537 67.59369,12.87962 63.54369,13.94747 C59.49234,14.98427 55.34919,15.43787 51.22629,15.27992 C47.10609,15.12332 43.01559,14.35382 39.13569,12.90122 C35.27064,11.41217 31.64589,9.21167 28.52334,6.00542 C30.17844,10.19312 33.69654,13.63157 37.74249,15.85232 C39.81609,17.01602 42.04359,17.88407 44.34264,18.48212 C48.15504,19.39202 45.00549,25.35497 36.28584,25.41167 C30.46059,25.44812 23.62959,22.20542 22.19454,16.42337 C17.98389,22.69817 3.30939,25.54262 0.00594,17.44667 C0.04239,20.87972 2.93544,23.88212 6.22134,25.04582 C9.68814,26.27432 13.48569,25.93682 17.14554,25.58177 C21.01059,35.77562 36.59634,38.80772 44.00109,30.80627 C48.85839,37.05542 62.94834,40.34537 73.34469,37.08107 C73.61469,48.16052 84.64014,57.14747 95.72229,57.05027 C106.80444,56.95172 116.90109,49.22972 121.91634,39.34637 C126.28629,45.19187 134.33364,48.00797 141.39414,46.16522 C148.87179,44.21312 153.36324,37.99907 155.11284,30.84407 C157.78584,34.69292 163.94589,36.29537 168.64929,36.10907 C174.68379,35.86877 179.47089,32.75162 181.68489,28.31147 C185.32989,36.05912 192.12579,41.30522 201.21804,40.37777 C209.57859,39.52457 216.84159,33.88292 221.70159,27.02627 C223.85214,31.35977 228.84174,34.64567 229.77324,35.23292 C234.18234,38.01392 242.36199,38.08277 246.06639,33.88292 C247.95099,31.74452 248.70564,29.21867 248.68449,26.55377 C245.16594,37.33622 226.16334,31.23692 221.51799,20.29247" id="Fill-4" fill="#9EDDE8" mask="url(#mask-4)"></path>
                </g>
                <path d="M153.18477,33.338195 C157.10517,33.972695 160.96887,35.172845 164.84067,36.872495 C161.93142,33.779645 158.06907,31.552145 153.91647,30.264245 C149.76252,28.942595 145.26162,28.586195 140.89032,29.236895 C136.51767,29.891645 132.31512,31.539995 128.72682,34.011845 C125.12907,36.453995 122.08077,39.704795 120.19347,43.506395 C123.40107,40.751045 126.74637,38.477645 130.31442,36.730745 C133.89057,35.016245 137.64087,33.806645 141.48432,33.242345 C145.32642,32.671295 149.26572,32.736095 153.18477,33.338195" id="Fill-7" fill="#FFFFFF"></path>
                <g id="Group-11" transform="translate(2.350000, 0.022220)">
                    <mask id="mask-6" fill="white">
                        <use xlink:href="#path-5"></use>
                    </mask>
                    <g id="Clip-10"></g>
                    <path d="M240.69941,91.340865 C238.75676,89.988165 233.52551,87.963165 229.52411,89.211915 C229.23521,86.317515 228.69251,83.262465 226.05731,80.496315 C224.36981,78.723765 220.74236,77.290065 215.62856,78.190515 C215.86481,75.625515 215.93096,72.980865 215.12096,70.537365 C214.30826,68.091165 212.46956,65.859615 209.98151,65.190015 C207.26666,64.458315 204.03611,64.633815 201.58856,65.221065 C201.91931,59.370165 199.69586,53.319465 194.97761,49.679865 C189.94346,45.794565 182.63321,45.129015 176.98076,48.038265 C186.32411,34.590915 182.11346,13.710465 168.28811,4.934115 C154.33451,-3.923235 134.35046,0.634365 123.53426,13.129965 C117.72116,5.729265 105.21746,5.024565 98.61056,11.727315 C92.00501,18.431415 92.89061,30.924315 100.37636,36.629415 C94.69556,34.824465 87.99146,36.916965 84.34781,41.632515 C80.70146,46.348065 80.36666,53.362665 83.54591,58.404915 C76.70546,56.394765 68.69591,59.576715 65.09816,65.730015 C59.88176,57.612465 48.82796,53.804115 39.71816,56.986065 C30.60836,60.166665 24.32816,70.028415 25.29881,79.628265 C18.61496,75.026115 10.71206,76.720365 4.48856,81.930015 C2.89016,83.269215 1.44701,85.017465 0.29006,86.839965 C7.07516,80.635365 16.02701,78.066315 25.58231,80.242515 C28.53611,70.792515 36.55376,65.677365 44.90621,64.693215 C53.25596,63.707715 61.99856,66.962565 67.67261,73.168515 C68.86736,69.442515 72.62711,65.712465 77.30486,64.465065 C80.68931,63.561915 85.84361,64.280115 88.71776,66.225465 C87.49871,67.728015 86.47406,69.366915 85.74236,71.130015 C89.11331,68.646015 92.43701,66.665565 95.93621,65.180565 C99.42056,63.687465 103.02776,62.670915 106.71191,62.078265 C110.39606,61.496415 114.14771,61.326315 117.92501,61.635465 C121.71446,61.943265 125.48366,62.726265 129.42836,64.126215 C126.76886,60.856515 122.84441,58.658715 118.72016,57.463965 C115.77446,56.620215 112.68836,56.274615 109.61306,56.386665 C103.45301,55.170315 96.93791,55.695465 91.11131,58.052565 C91.12481,48.845565 99.84986,40.591665 109.04336,41.089815 C104.83271,35.554815 105.82091,26.771715 111.15341,22.308615 C116.48591,17.848215 125.30546,18.423315 130.01156,23.542515 C135.23066,15.603165 145.37726,11.229165 154.73141,12.882915 C164.08826,14.536665 172.11806,22.125015 174.29831,31.372515 C175.92641,38.266965 173.72726,45.327465 169.34111,50.821965 C167.42951,50.969115 165.52331,51.220215 163.64816,51.631965 C159.19451,52.613415 154.86101,54.331965 151.03241,56.875365 C147.23486,59.413365 143.88416,62.842365 142.10486,66.989565 C145.64456,64.253115 149.26391,62.198415 153.06821,60.585165 C156.85901,58.967865 160.79561,57.785265 164.80781,56.903715 C168.82406,56.032965 172.91726,55.456515 177.07256,55.206765 C181.24001,54.961065 185.41421,55.019115 189.85031,55.596915 C193.96781,56.690415 199.90241,63.713115 197.56826,70.455015 C200.33576,67.622715 204.10901,66.599415 207.30716,68.937615 C210.50396,71.277165 213.88031,78.555015 208.59236,85.980015 C212.92451,84.841965 218.04911,81.087615 222.23546,82.677915 C225.93176,84.081915 227.45051,87.921315 228.05531,91.154565 C235.41011,89.206515 241.60796,92.362815 245.30831,97.756065 C244.33226,95.134365 242.71631,92.744865 240.69941,91.340865" id="Fill-9" fill="#FFFFFF" mask="url(#mask-6)"></path>
                </g>
            </g>
        </g>
    </g>
</svg>