<?xml version="1.0" encoding="UTF-8"?>
<svg width="135px" height="75px" viewBox="0 0 135 75" version="1.1" xmlns="http://www.w3.org/2000/svg" xmlns:xlink="http://www.w3.org/1999/xlink">
    <!-- Generator: sketchtool 61 (101010) - https://sketch.com -->
    <title>67FCB3F5-E021-413F-A1CF-7D57A60EC889</title>
    <desc>Created with sketchtool.</desc>
    <defs>
        <polygon id="path-1" points="0.000141392731 0.883410329 134.063 0.883410329 134.063 75 0.000141392731 75"></polygon>
        <polygon id="path-3" points="0.2356 0.402 132.3236 0.402 132.3236 39 0.2356 39"></polygon>
    </defs>
    <g id="Page-1" stroke="none" stroke-width="1" fill="none" fill-rule="evenodd">
        <g id="004" transform="translate(-34.000000, -140.000000)">
            <g id="Cloud-02" transform="translate(34.000000, 139.000000)">
                <g id="Group-3" transform="translate(0.000000, 0.116800)">
                    <mask id="mask-2" fill="white">
                        <use xlink:href="#path-1"></use>
                    </mask>
                    <g id="Clip-2"></g>
                    <path d="M108.4313,21.6125 C108.5223,21.8605 108.6043,22.1125 108.6773,22.3665 C112.6043,20.1815 118.8193,18.5095 123.5933,20.5055 C127.6043,22.1815 131.4653,27.8245 133.0273,31.4305 C135.0493,36.0995 133.9233,42.0335 131.2743,46.2075 C129.3473,49.2415 126.0283,51.9385 122.4923,51.2985 C121.9163,54.8065 121.3543,57.4945 118.6043,60.3065 C116.2803,62.6835 111.0753,64.9255 107.8773,64.0105 C106.5373,67.4185 103.6663,70.4945 99.9793,72.1815 C95.9933,74.0055 89.7513,75.3905 85.5433,74.9005 C81.5753,74.4375 77.5823,73.5965 74.0743,71.6855 C70.5653,69.7735 67.5643,66.6755 66.4593,62.8355 C63.4803,66.4405 58.9103,68.6815 54.2363,68.8295 C49.3133,68.9835 44.5423,66.9945 41.6693,63.7535 C39.7293,66.4945 33.8573,67.4595 29.8983,66.6165 C26.9793,65.9945 22.6673,63.4945 22.1633,59.1275 C16.6583,63.8975 7.2193,62.4095 2.8513,56.5795 C-1.5167,50.7505 -0.6877,41.8935 4.1213,36.4225 C7.0943,33.0395 12.0073,30.8225 16.1623,32.5575 C16.5993,26.9455 18.3223,21.1265 22.4813,17.3335 C26.6403,13.5405 33.6813,12.5805 37.8323,16.3825 C44.3283,7.1165 54.6563,0.4295 66.2693,0.9075 C76.0923,1.3115 85.5623,6.8465 90.7333,15.2065 C92.2913,13.8065 96.6663,13.1815 98.9143,13.7405 C103.0763,14.7745 106.9513,17.5855 108.4313,21.6125" id="Fill-1" fill="#E1FAFF" mask="url(#mask-2)"></path>
                </g>
                <g id="Group-6" transform="translate(1.000000, 36.116800)">
                    <mask id="mask-4" fill="white">
                        <use xlink:href="#path-3"></use>
                    </mask>
                    <g id="Clip-5"></g>
                    <path d="M106.8776,28.011 C110.0746,28.925 115.2796,26.684 117.6046,24.307 C120.3546,21.494 120.9166,18.807 121.4916,15.298 C125.0276,15.939 128.3476,13.241 130.2736,10.207 C131.1416,8.841 131.8406,7.284 132.3236,5.648 C131.4316,7.12 130.1376,8.448 128.6146,9.586 C126.1196,10.398 123.7106,10.86 121.2846,11.06 C118.8596,11.262 116.4556,11.177 114.1486,10.737 C111.8396,10.295 109.6356,9.477 107.6116,8.228 C105.5656,6.993 103.7656,5.316 101.9206,3.409 C102.6286,5.945 104.0966,8.324 106.1496,10.177 C108.0756,11.913 110.5106,13.106 113.0506,13.675 C116.1836,16.735 114.3486,20.291 111.4796,22.41 C104.1466,27.827 85.8136,28.91 88.8966,14.908 C83.3376,18.941 77.2606,14.11 78.6826,10.967 C83.0386,9.137 87.0856,6.395 89.8546,2.665 C85.7396,5.235 81.4296,6.97 76.9726,8.052 C72.5246,9.143 67.9626,9.613 63.4186,9.539 C58.8786,9.452 54.3376,8.825 50.0136,7.444 C45.6946,6.06 41.5916,3.911 38.2296,0.402 C39.1306,2.669 40.6946,4.679 42.5156,6.395 C44.3706,8.078 46.4966,9.486 48.7696,10.559 C49.2636,10.792 50.2926,11.463 50.6696,12.093 C53.8506,18.33 48.6446,22.302 36.8546,23.119 C31.1896,23.512 26.4166,21.022 22.0846,17.352 C19.2146,20.895 14.5706,22.922 10.0206,22.618 C6.2856,22.369 2.7146,20.538 0.2356,17.742 C0.6626,18.74 1.1906,19.698 1.8516,20.579 C6.2196,26.409 15.6586,27.898 21.1636,23.127 C21.6676,27.494 25.9796,29.994 28.8986,30.616 C32.8576,31.459 38.7296,30.494 40.6696,27.753 C43.5426,30.994 48.3136,32.984 53.2356,32.829 C57.9106,32.682 62.4806,30.441 65.4596,26.835 C66.5646,30.675 69.5646,33.774 73.0736,35.685 C76.5826,37.597 80.5746,38.438 84.5436,38.901 C88.7516,39.391 94.9936,38.005 98.9796,36.182 C102.6666,34.494 105.5376,31.418 106.8776,28.011" id="Fill-4" fill="#9EDDE8" mask="url(#mask-4)"></path>
                </g>
                <path d="M133.5309,32.9803 C133.3899,32.4933 133.2289,32.0123 133.0269,31.5473 C131.4659,27.9413 127.6039,22.2983 123.5929,20.6223 C118.8189,18.6263 112.6039,20.2983 108.6769,22.4833 C108.6039,22.2293 108.5219,21.9773 108.4309,21.7293 C106.9509,17.7023 103.0759,14.8913 98.9149,13.8573 C96.6669,13.2983 92.2919,13.9233 90.7329,15.3233 C85.5619,6.9633 76.0929,1.4283 66.2689,1.0243 C54.6559,0.5463 44.3289,7.2333 37.8329,16.4993 C33.6809,12.6973 26.6409,13.6573 22.4819,17.4503 C18.3229,21.2433 16.5999,27.0623 16.1629,32.6743 C12.0069,30.9393 7.0939,33.1563 4.1209,36.5393 C2.4099,38.4863 1.2139,40.8643 0.5649,43.3793 C2.4269,39.3573 6.6779,36.7413 11.3129,36.0893 C15.3129,35.5273 18.7709,36.1113 21.8129,39.6523 C18.6459,33.4023 21.6739,26.6023 26.3579,22.8973 C31.6069,18.7443 38.5569,18.8423 42.4989,22.8583 C41.4549,23.9043 40.5149,25.0403 39.7129,26.2643 C42.9319,24.3013 46.1189,22.6653 49.4399,21.4723 C52.7509,20.2713 56.1559,19.4933 59.6149,19.0923 C63.0749,18.6953 66.5859,18.6683 70.1249,18.9693 C73.6709,19.2583 77.2179,19.8993 80.9089,20.6773 C84.7089,22.1253 88.6459,24.5273 91.1459,27.2773 C89.8419,25.5383 90.0029,23.8923 91.1879,22.0693 C92.2709,20.4023 94.9189,19.7353 97.0539,20.1463 C99.7419,20.6633 101.7199,22.5413 102.7209,25.0873 C103.7229,27.6353 103.5409,29.9343 102.4789,32.7773 C105.3539,27.1943 111.9729,23.9903 119.8129,24.1113 C124.8869,24.1883 130.6989,26.6313 133.5309,32.9803" id="Fill-7" fill="#FFFFFF"></path>
            </g>
        </g>
    </g>
</svg>