<?xml version="1.0" encoding="UTF-8"?>
<svg width="55px" height="40px" viewBox="0 0 55 40" version="1.1" xmlns="http://www.w3.org/2000/svg" xmlns:xlink="http://www.w3.org/1999/xlink">
    <!-- Generator: sketchtool 61 (101010) - https://sketch.com -->
    <title>EEE0E647-8235-48C8-B7DF-09F0AB6411B4</title>
    <desc>Created with sketchtool.</desc>
    <g id="Page-1" stroke="none" stroke-width="1" fill="none" fill-rule="evenodd">
        <g id="004" transform="translate(-120.000000, -616.000000)">
            <g id="Cloud-03" transform="translate(120.000000, 616.000000)">
                <path d="M46.7026,17.2852 C46.6416,15.8832 45.8876,14.5042 44.6906,13.7582 C43.1766,12.8132 41.0656,12.9502 39.6866,14.0832 C40.3656,8.6762 36.9276,3.0752 31.8656,1.0582 C25.8006,-1.3578 18.6936,0.2622 17.1086,6.9592 C12.7016,1.6832 5.9266,3.9682 2.2666,8.8052 C-0.9604,13.0702 -1.5714,24.3062 6.0406,24.9592 C6.7786,28.6542 10.5526,31.4782 14.3066,31.1442 C15.3656,34.9782 18.4666,38.1822 22.2646,39.3662 C24.8206,40.1932 27.7056,40.0192 30.1966,39.0522 C31.3946,38.5862 32.9286,37.5562 33.8036,36.8382 C34.6166,37.5882 36.0326,38.6002 37.1826,38.7702 C42.0426,39.4882 49.0746,36.4212 48.5346,30.6392 C52.6506,30.4422 55.3366,26.2882 54.6486,22.3952 C54.3486,20.7012 53.9256,19.6632 52.4916,18.6502 C51.4286,17.9002 48.6466,17.2442 46.6006,18.3932 C46.6866,18.0302 46.7186,17.6572 46.7026,17.2852" id="Fill-1" fill="#E1FAFF"></path>
                <path d="M54.7026,24.4629 C52.9686,28.5509 47.7376,29.5319 45.7096,27.6819 C44.5536,30.6189 40.4786,30.9209 38.5746,27.5149 C39.1786,32.3689 29.6406,40.6389 25.6166,33.8689 C24.2416,31.5569 28.2956,28.9939 32.6166,29.1189 C30.2686,28.1119 29.9276,26.2819 31.8466,24.5209 C32.2866,24.3239 32.7186,24.1109 33.1296,23.8569 C34.4016,23.0799 35.5516,22.0019 36.1706,20.6619 C35.0546,21.6109 33.8526,22.2829 32.5916,22.8169 C31.3276,23.3329 30.0156,23.7199 28.6736,23.9459 C27.3356,24.1989 25.9696,24.2879 24.5956,24.2589 C23.2196,24.2179 21.8426,24.0269 20.4206,23.6819 C20.4716,23.7219 20.5306,23.7519 20.5826,23.7909 C20.4976,23.7479 20.4346,23.7089 20.4206,23.6819 C24.3246,27.7649 18.7416,29.8479 13.9076,29.4099 C10.9876,29.1459 8.6746,26.2429 13.9106,22.4279 C14.8746,22.0039 15.7846,21.4469 16.5626,20.7289 C17.6366,19.7569 18.4566,18.4779 18.7416,17.0979 C17.8856,18.2089 16.9206,19.1009 15.8396,19.8079 C14.7566,20.5039 13.5846,21.0469 12.3506,21.4249 C11.1246,21.8269 9.8406,22.0639 8.5336,22.2089 C7.2256,22.3409 5.8996,22.3559 4.5076,22.2609 C2.6596,21.6299 1.0966,20.5519 0.1896,18.9259 C0.7326,22.0509 2.4926,24.6549 6.0406,24.9589 C6.7786,28.6539 10.5526,31.4789 14.3066,31.1449 C15.3656,34.9789 18.4666,38.1829 22.2646,39.3659 C24.8206,40.1929 27.7056,40.0199 30.1966,39.0519 C31.3946,38.5859 32.9286,37.5569 33.8036,36.8379 C34.6166,37.5879 36.0326,38.6009 37.1826,38.7709 C42.0426,39.4879 49.0746,36.4209 48.5346,30.6389 C51.9216,30.4779 54.3356,27.6339 54.7026,24.4629" id="Fill-3" fill="#9EDDE8"></path>
                <path d="M46.3662,23.0879 C47.8042,19.0409 52.7732,19.2269 54.5392,21.8409 C54.2382,20.4659 53.7622,19.5469 52.4912,18.6509 C51.4282,17.9009 48.6472,17.2439 46.6002,18.3939 C46.6862,18.0299 46.7192,17.6569 46.7022,17.2849 C46.6422,15.8829 45.8872,14.5039 44.6912,13.7579 C43.1762,12.8139 41.0662,12.9499 39.6872,14.0829 C40.3662,8.6759 36.9282,3.0749 31.8652,1.0589 C25.8012,-1.3571 18.6932,0.2619 17.1092,6.9589 C12.7012,1.6839 5.9262,3.9679 2.2662,8.8049 C1.3052,10.0749 0.5792,11.9649 0.2312,14.0079 C3.3562,6.3929 15.0832,6.7119 18.7412,12.4939 C17.8042,8.6189 19.8202,5.4779 23.6162,4.3069 C28.8512,2.6909 33.5202,8.3169 28.8132,12.3799 C27.5162,12.4289 26.2282,12.7109 25.0502,13.2339 C23.7212,13.8219 22.5182,14.7249 21.7262,15.9129 C23.0422,15.3779 24.2822,14.9789 25.5382,14.7169 C26.7922,14.4579 28.0492,14.3529 29.3022,14.3589 C30.5562,14.3729 31.8102,14.5039 33.0602,14.7849 C34.3112,15.0689 35.5442,15.4929 36.8482,16.0549 C41.1582,14.3899 43.5382,17.2989 43.1782,20.3999 C44.8582,20.3939 46.2092,21.4009 46.3662,23.0879" id="Fill-5" fill="#FFFFFF"></path>
            </g>
        </g>
    </g>
</svg>